<svg width="48" height="48" viewBox="0 0 48 48" fill="none" xmlns="http://www.w3.org/2000/svg">
<path d="M0 8C0 3.58172 3.58172 0 8 0H40C44.4183 0 48 3.58172 48 8V40C48 44.4183 44.4183 48 40 48H8C3.58172 48 0 44.4183 0 40V8Z" fill="#F1F1F1"/>
<path d="M39.5213 27.8727C37.3841 36.4452 28.7016 41.6622 20.1281 39.5245C11.5582 37.3874 6.34114 28.7043 8.47923 20.1325C10.6154 11.5591 19.298 6.34167 27.8688 8.47883C36.4417 10.616 41.6584 19.3 39.521 27.8729L39.5212 27.8727H39.5213Z" fill="#F7931A"/>
<path d="M31.083 21.7096C31.4015 19.5801 29.7802 18.4354 27.5633 17.6718L28.2825 14.7872L26.5265 14.3497L25.8264 17.1583C25.3648 17.0432 24.8907 16.9347 24.4196 16.8271L25.1248 14L23.3699 13.5624L22.6503 16.4461C22.2683 16.3591 21.8931 16.2731 21.5291 16.1826L21.5312 16.1735L19.1097 15.5688L18.6426 17.4443C18.6426 17.4443 19.9453 17.7429 19.9179 17.7613C20.6289 17.9387 20.7575 18.4094 20.7362 18.7825L19.9169 22.0688C19.9659 22.0812 20.0294 22.0992 20.0995 22.1273C20.0409 22.1128 19.9786 22.0969 19.9139 22.0814L18.7656 26.6849C18.6787 26.901 18.4582 27.2252 17.961 27.1021C17.9786 27.1276 16.6848 26.7836 16.6848 26.7836L15.813 28.7936L18.0981 29.3632C18.5232 29.4698 18.9397 29.5813 19.35 29.6862L18.6233 32.6039L20.3772 33.0414L21.0968 30.1547C21.576 30.2848 22.041 30.4048 22.4962 30.5179L21.779 33.391L23.535 33.8285L24.2616 30.9163C27.2558 31.483 29.5072 31.2545 30.4549 28.5462C31.2185 26.3657 30.4169 25.108 28.8416 24.2879C29.989 24.0233 30.8532 23.2687 31.0836 21.7098L31.0831 21.7094L31.083 21.7096ZM27.0711 27.3353C26.5284 29.5158 22.8571 28.3371 21.6669 28.0415L22.6311 24.1761C23.8213 24.4732 27.6382 25.0613 27.0712 27.3353H27.0711ZM27.6141 21.678C27.1191 23.6614 24.0635 22.6537 23.0722 22.4066L23.9464 18.901C24.9377 19.148 28.1298 19.6092 27.6143 21.678H27.6141Z" fill="white"/>
</svg>
