<svg width="48" height="48" viewBox="0 0 48 48" fill="none" xmlns="http://www.w3.org/2000/svg">
<path d="M0 8C0 3.58172 3.58172 0 8 0H40C44.4183 0 48 3.58172 48 8V40C48 44.4183 44.4183 48 40 48H8C3.58172 48 0 44.4183 0 40V8Z" fill="#F1F1F1"/>
<path d="M23.7572 8L23.5439 8.70646V29.2044L23.7572 29.4119L33.5122 23.7876L23.7572 8Z" fill="#343434"/>
<path d="M23.7552 8L14 23.7876L23.7552 29.4119V19.4627V8Z" fill="#8C8C8C"/>
<path d="M23.7579 31.2132L23.6377 31.3562V38.6578L23.7579 39L33.5188 25.5919L23.7579 31.2132Z" fill="#3C3C3B"/>
<path d="M23.7552 39V31.2132L14 25.5919L23.7552 39Z" fill="#8C8C8C"/>
<path d="M23.7539 29.4115L33.5089 23.7873L23.7539 19.4624V29.4115Z" fill="#141414"/>
<path d="M14 23.7873L23.7552 29.4115V19.4624L14 23.7873Z" fill="#393939"/>
</svg>
