<svg width="48" height="48" viewBox="0 0 48 48" fill="none" xmlns="http://www.w3.org/2000/svg">
<path d="M0 8C0 3.58172 3.58172 0 8 0H40C44.4183 0 48 3.58172 48 8V40C48 44.4183 44.4183 48 40 48H8C3.58172 48 0 44.4183 0 40V8Z" fill="#F1F1F1"/>
<path fill-rule="evenodd" clip-rule="evenodd" d="M14.0526 10.9727L8.31606 23.0223C8.29424 23.0671 8.28732 23.1178 8.29632 23.1668C8.30533 23.2158 8.32979 23.2607 8.36612 23.2948L23.8592 38.1409C23.9032 38.1831 23.9618 38.2067 24.0228 38.2067C24.0837 38.2067 24.1423 38.1831 24.1864 38.1409L39.6794 23.2958C39.7157 23.2616 39.7402 23.2168 39.7492 23.1677C39.7582 23.1187 39.7513 23.0681 39.7295 23.0232L33.9929 10.9736C33.9744 10.9331 33.9446 10.8989 33.9071 10.8749C33.8697 10.8509 33.8261 10.8382 33.7816 10.8383H14.2658C14.2211 10.8377 14.1772 10.8501 14.1393 10.874C14.1015 10.8978 14.0714 10.9321 14.0526 10.9727Z" fill="#50AF95"/>
<path fill-rule="evenodd" clip-rule="evenodd" d="M26.0119 24.26C25.9006 24.2684 25.326 24.3026 24.0441 24.3026C23.0245 24.3026 22.3006 24.2721 22.0466 24.26C18.1064 24.0867 15.1654 23.4008 15.1654 22.5796C15.1654 21.7583 18.1064 21.0733 22.0466 20.8972V23.5769C22.3043 23.5954 23.0421 23.639 24.0617 23.639C25.2852 23.639 25.8979 23.588 26.0082 23.5778V20.8991C29.94 21.0743 32.8746 21.7602 32.8746 22.5796C32.8746 23.3989 29.941 24.0848 26.0082 24.2591L26.0119 24.26ZM26.0119 20.6219V18.2241H31.4991V14.5675H16.5594V18.2241H22.0457V20.621C17.5864 20.8259 14.2329 21.7092 14.2329 22.7677C14.2329 23.8262 17.5864 24.7086 22.0457 24.9144V32.5984H26.0109V24.9116C30.46 24.7068 33.808 23.8244 33.808 22.7668C33.808 21.7092 30.4628 20.8268 26.0109 20.621L26.0119 20.6219Z" fill="white"/>
</svg>
