<svg width="14" height="14" viewBox="0 0 14 14" fill="none" xmlns="http://www.w3.org/2000/svg">
<path d="M4.1641 14H1.4359C1.04103 14 0.702991 13.8594 0.421795 13.5782C0.140598 13.297 0 12.959 0 12.5641V9.8359C0.574359 9.8359 1.07692 9.65342 1.50769 9.28846C1.93846 8.9235 2.15385 8.45983 2.15385 7.89744C2.15385 7.33504 1.93846 6.87137 1.50769 6.50641C1.07692 6.14145 0.574359 5.95897 0 5.95897V3.23077C0 2.8359 0.140598 2.49786 0.421795 2.21667C0.702991 1.93547 1.04103 1.79487 1.4359 1.79487H4.30769C4.30769 1.29231 4.4812 0.867521 4.82821 0.520513C5.17521 0.173504 5.6 0 6.10256 0C6.60513 0 7.02991 0.173504 7.37692 0.520513C7.72393 0.867521 7.89744 1.29231 7.89744 1.79487H10.7692C11.1641 1.79487 11.5021 1.93547 11.7833 2.21667C12.0645 2.49786 12.2051 2.8359 12.2051 3.23077V6.10256C12.7077 6.10256 13.1325 6.27607 13.4795 6.62308C13.8265 6.97009 14 7.39487 14 7.89744C14 8.4 13.8265 8.82479 13.4795 9.1718C13.1325 9.5188 12.7077 9.69231 12.2051 9.69231V12.5641C12.2051 12.959 12.0645 13.297 11.7833 13.5782C11.5021 13.8594 11.1641 14 10.7692 14H8.04103C8.04103 13.4017 7.85256 12.8932 7.47564 12.4744C7.09872 12.0556 6.64103 11.8462 6.10256 11.8462C5.5641 11.8462 5.10641 12.0556 4.72949 12.4744C4.35256 12.8932 4.1641 13.4017 4.1641 14ZM1.4359 12.5641H2.96154C3.24872 11.7744 3.7094 11.2179 4.34359 10.8949C4.97778 10.5718 5.5641 10.4103 6.10256 10.4103C6.64103 10.4103 7.22735 10.5718 7.86154 10.8949C8.49573 11.2179 8.95641 11.7744 9.24359 12.5641H10.7692V8.25641H12.2051C12.3009 8.25641 12.3846 8.22051 12.4564 8.14872C12.5282 8.07692 12.5641 7.99316 12.5641 7.89744C12.5641 7.80171 12.5282 7.71795 12.4564 7.64615C12.3846 7.57436 12.3009 7.53846 12.2051 7.53846H10.7692V3.23077H6.46154V1.79487C6.46154 1.69915 6.42564 1.61538 6.35385 1.54359C6.28205 1.47179 6.19829 1.4359 6.10256 1.4359C6.00684 1.4359 5.92308 1.47179 5.85128 1.54359C5.77949 1.61538 5.74359 1.69915 5.74359 1.79487V3.23077H1.4359V4.81026C2.08205 5.04957 2.60256 5.45043 2.99744 6.01282C3.39231 6.57521 3.58974 7.20342 3.58974 7.89744C3.58974 8.57949 3.39231 9.20171 2.99744 9.7641C2.60256 10.3265 2.08205 10.7333 1.4359 10.9846V12.5641Z" fill="#C7C7C7"/>
</svg>
