<svg width="24" height="24" viewBox="0 0 24 24" fill="none" xmlns="http://www.w3.org/2000/svg">
<path d="M12 22C17.5228 22 22 17.5228 22 12C22 6.47715 17.5228 2 12 2C6.47715 2 2 6.47715 2 12C2 17.5228 6.47715 22 12 22Z" stroke="#F1F1F1" stroke-linejoin="round"/>
<path d="M15.5 15.5005C15.5 15.5005 14.5 17.5005 12 17.5005C9.5 17.5005 8.5 15.5005 8.5 15.5005" stroke="#F1F1F1" stroke-linecap="round" stroke-linejoin="round"/>
<path d="M10 9.50049C10 9.50049 9.5 10.5005 8.5 10.5005C7.5 10.5005 7 9.50049 7 9.50049" stroke="#F1F1F1" stroke-linecap="round" stroke-linejoin="round"/>
<path d="M17.0005 9.50049C17.0005 9.50049 16.5005 10.5005 15.5005 10.5005C14.5005 10.5005 14.0005 9.50049 14.0005 9.50049" stroke="#F1F1F1" stroke-linecap="round" stroke-linejoin="round"/>
</svg>
