<svg width="10" height="14" viewBox="0 0 10 14" fill="none" xmlns="http://www.w3.org/2000/svg">
<path d="M10 7.46998C10 7.20998 9.81 7.00998 9.56 6.94998C8.67 6.74998 8 5.94998 8 4.99998V0.999985H8.5C8.78 0.999985 9 0.779985 9 0.499985C9 0.219985 8.78 -1.52588e-05 8.5 -1.52588e-05H1.5C1.22 -1.52588e-05 1 0.219985 1 0.499985C1 0.779985 1.22 0.999985 1.5 0.999985H2V4.99998C2 5.94998 1.33 6.74998 0.44 6.94998C0.19 7.00998 0 7.20998 0 7.46998C0 7.75998 0.24 7.99998 0.53 7.99998H4.5V13.5C4.5 13.78 4.72 14 5 14C5.28 14 5.5 13.78 5.5 13.5V7.99998H9.47C9.76 7.99998 10 7.75998 10 7.46998Z" fill="#659DF6"/>
</svg>
