<svg width="16" height="15" viewBox="0 0 16 15" fill="none" xmlns="http://www.w3.org/2000/svg">
<path d="M6.09476 13.8904C4.97774 13.5578 3.98344 12.9404 3.19612 12.1223C3.48982 11.7742 3.66683 11.3244 3.66683 10.8333C3.66683 9.72874 2.7714 8.8333 1.66683 8.8333C1.60001 8.8333 1.53396 8.83658 1.46883 8.84298C1.38009 8.40917 1.3335 7.96001 1.3335 7.49997C1.3335 6.8031 1.44042 6.1312 1.63876 5.49978C1.6481 5.49991 1.65746 5.49997 1.66683 5.49997C2.7714 5.49997 3.66683 4.60454 3.66683 3.49997C3.66683 3.18288 3.59303 2.88302 3.46168 2.61663C4.23267 1.89976 5.17367 1.36327 6.21751 1.07431C6.54829 1.72266 7.22238 2.16664 8.00016 2.16664C8.77795 2.16664 9.45203 1.72266 9.78281 1.07431C10.8267 1.36327 11.7677 1.89976 12.5386 2.61663C12.4073 2.88302 12.3335 3.18288 12.3335 3.49997C12.3335 4.60454 13.2289 5.49997 14.3335 5.49997C14.3429 5.49997 14.3522 5.49991 14.3616 5.49978C14.5599 6.1312 14.6668 6.8031 14.6668 7.49997C14.6668 7.96001 14.6202 8.40917 14.5315 8.84298C14.4664 8.83658 14.4003 8.8333 14.3335 8.8333C13.2289 8.8333 12.3335 9.72874 12.3335 10.8333C12.3335 11.3244 12.5105 11.7742 12.8042 12.1223C12.0169 12.9404 11.0226 13.5578 9.90556 13.8904C9.64776 13.0839 8.89216 12.5 8.00016 12.5C7.10817 12.5 6.35256 13.0839 6.09476 13.8904Z" stroke="#A3A3A3" stroke-linejoin="round"/>
<path d="M8.00033 9.83331C9.28899 9.83331 10.3337 8.78864 10.3337 7.49997C10.3337 6.21131 9.28899 5.16664 8.00033 5.16664C6.71166 5.16664 5.66699 6.21131 5.66699 7.49997C5.66699 8.78864 6.71166 9.83331 8.00033 9.83331Z" stroke="#A3A3A3" stroke-linejoin="round"/>
</svg>
