<svg width="124" height="124" viewBox="0 0 124 124" fill="none" xmlns="http://www.w3.org/2000/svg">
<path d="M62.0001 72.3333C67.707 72.3333 72.3334 67.7069 72.3334 62C72.3334 56.2931 67.707 51.6667 62.0001 51.6667C56.2931 51.6667 51.6667 56.2931 51.6667 62C51.6667 67.7069 56.2931 72.3333 62.0001 72.3333Z" stroke="#F1F1F1" stroke-width="2" stroke-linecap="square" stroke-linejoin="round"/>
<path d="M44.8579 36.1667C43.1214 37.3212 41.508 38.6462 40.0415 40.1178C38.5022 41.6624 37.1249 43.3684 35.937 45.2083" stroke="#F1F1F1" stroke-width="2" stroke-linecap="square" stroke-linejoin="bevel"/>
<path d="M31.5103 67.6315C31.1751 65.8053 31 63.9231 31 62C31 60.0769 31.1751 58.1947 31.5103 56.3685" stroke="#F1F1F1" stroke-width="2" stroke-linecap="square" stroke-linejoin="bevel"/>
<path d="M44.8579 87.8333C43.1214 86.6788 41.508 85.3538 40.0415 83.8822C38.5022 82.3376 37.1249 80.6316 35.937 78.7917" stroke="#F1F1F1" stroke-width="2" stroke-linecap="square" stroke-linejoin="bevel"/>
<path d="M68.0962 92.4008C66.1251 92.7939 64.0866 93.0001 62 93.0001C59.9134 93.0001 57.8749 92.7939 55.9038 92.4008" stroke="#F1F1F1" stroke-width="2" stroke-linecap="square" stroke-linejoin="bevel"/>
<path d="M79.1423 87.8333C80.8788 86.6788 82.4923 85.3538 83.9587 83.8822C85.498 82.3376 86.8754 80.6316 88.0632 78.7917" stroke="#F1F1F1" stroke-width="2" stroke-linecap="square" stroke-linejoin="bevel"/>
<path d="M92.4905 67.6315C92.8256 65.8053 93.0007 63.9231 93.0007 62C93.0007 60.0769 92.8256 58.1947 92.4905 56.3685" stroke="#F1F1F1" stroke-width="2" stroke-linecap="square" stroke-linejoin="bevel"/>
<path d="M79.1423 36.1667C80.8788 37.3212 82.4923 38.6462 83.9587 40.1178C85.498 41.6624 86.8754 43.3684 88.0632 45.2083" stroke="#F1F1F1" stroke-width="2" stroke-linecap="square" stroke-linejoin="bevel"/>
<path d="M55.9038 31.5992C57.8749 31.2062 59.9134 31 62 31C64.0866 31 66.1251 31.2062 68.0962 31.5992" stroke="#F1F1F1" stroke-width="2" stroke-linecap="square" stroke-linejoin="bevel"/>
<path d="M113.667 62C113.667 60.2562 113.58 58.5327 113.411 56.8333C113.238 55.084 112.977 53.3603 112.633 51.6666M10.3333 62C10.3333 60.2562 10.4196 58.5327 10.5884 56.8333C10.762 55.084 11.023 53.3603 11.3668 51.6667M99.8354 97.1845C98.6747 98.432 97.453 99.6221 96.1752 100.75C95.0313 101.76 93.8425 102.719 92.612 103.626M24.1645 97.1845C25.3252 98.432 26.5468 99.6221 27.8247 100.75C28.9685 101.76 30.1574 102.719 31.3879 103.626M40.5903 14.9641C38.8968 15.7362 37.2523 16.597 35.6627 17.5407C34.189 18.4156 32.7624 19.3617 31.3879 20.3743M83.4095 14.9641C85.103 15.7362 86.7475 16.597 88.3371 17.5407C89.8109 18.4156 91.2374 19.3617 92.612 20.3743M67.8035 10.6556C65.8983 10.4427 63.9619 10.3333 61.9999 10.3333C60.0379 10.3333 58.1015 10.4427 56.1964 10.6557M67.8035 113.344C69.7474 113.127 71.6588 112.802 73.5315 112.375C75.322 111.967 77.0772 111.466 78.7916 110.877M56.1964 113.344C54.2524 113.127 52.341 112.802 50.4684 112.375C48.6778 111.967 46.9227 111.466 45.2083 110.877M21.0669 30.4692C20.0886 31.7373 19.1679 33.0521 18.3088 34.4098C17.5346 35.6332 16.8104 36.8913 16.139 38.1814M102.933 30.4692C103.911 31.7373 104.832 33.0521 105.691 34.4098C106.465 35.6332 107.189 36.8913 107.861 38.1814M16.139 85.8186C15.3882 84.3759 14.7035 82.8934 14.0889 81.375C13.525 79.9819 13.02 78.5586 12.5772 77.1082M107.861 85.8186C108.612 84.3759 109.296 82.8934 109.911 81.375C110.475 79.9819 110.98 78.5586 111.423 77.1081" stroke="#F1F1F1" stroke-width="2" stroke-linecap="square" stroke-linejoin="round"/>
</svg>
