<svg width="48" height="48" viewBox="0 0 48 48" fill="none" xmlns="http://www.w3.org/2000/svg">
<path d="M0 8C0 3.58172 3.58172 0 8 0H40C44.4183 0 48 3.58172 48 8V40C48 44.4183 44.4183 48 40 48H8C3.58172 48 0 44.4183 0 40V8Z" fill="#F1F1F1"/>
<path d="M21.6667 26.9165H13.5V35.0832H21.6667V26.9165Z" stroke="#8A8A8A" stroke-width="1.5" stroke-linecap="round" stroke-linejoin="round"/>
<path d="M24.0003 12.3335L29.8337 22.2502H18.167L24.0003 12.3335Z" stroke="#8A8A8A" stroke-width="1.5" stroke-linecap="round" stroke-linejoin="round"/>
<path d="M30.9997 35.6668C33.577 35.6668 35.6663 33.5775 35.6663 31.0002C35.6663 28.4228 33.577 26.3335 30.9997 26.3335C28.4223 26.3335 26.333 28.4228 26.333 31.0002C26.333 33.5775 28.4223 35.6668 30.9997 35.6668Z" stroke="#8A8A8A" stroke-width="1.5" stroke-linecap="round" stroke-linejoin="round"/>
</svg>
