<svg width="67" height="70" viewBox="0 0 67 70" fill="none" xmlns="http://www.w3.org/2000/svg">
<path d="M0 10.913C0 5.33787 4.51953 0.818344 10.0947 0.818344H56.9053C62.4805 0.818344 67 5.33787 67 10.913V59.042C67 64.6171 62.4805 69.1367 56.9053 69.1367H10.0947C4.51953 69.1367 0 64.6171 0 59.042V10.913Z" fill="#F1F1F1"/>
<g clip-path="url(#clip0_131_11708)">
<path d="M21.236 29.692V33.3404H8.05786V29.692H21.236ZM8.05786 39.8187V36.1703H21.236V39.8187H8.05786Z" fill="#212121"/>
<path d="M32.4186 30.0803C31.0683 30.0803 30.1419 30.6491 29.639 31.7866C29.3783 32.3877 29.2479 33.1553 29.2479 34.0893V42.2739H25.281V27.181H29.1222V29.3867C29.6344 28.6099 30.1186 28.0504 30.5749 27.7082C31.3943 27.0978 32.4326 26.7926 33.6897 26.7926C35.2634 26.7926 36.5485 27.2042 37.5448 28.0272C38.5505 28.8411 39.0534 30.1959 39.0534 32.0918V42.2739H34.9747V33.0767C34.9747 32.2814 34.8676 31.671 34.6534 31.2456C34.2623 30.4687 33.5175 30.0803 32.4186 30.0803Z" fill="#212121"/>
<path d="M45.403 27.1533V42.2739H41.3662V27.1533H45.403ZM45.403 21.7015V25.6682H41.3662V21.7015H45.403Z" fill="#212121"/>
<path d="M47.9263 21.8264H51.9071V42.274H47.9263V21.8264Z" fill="#212121"/>
<path d="M57.1612 46.671C56.4908 46.9484 56.0251 47.0871 55.7644 47.0871V45.5612C56.7049 45.293 57.3615 44.8166 57.7339 44.1323C57.9667 43.7069 58.1157 43.0873 58.1809 42.2734H56.054V38.2747H60.0665V41.7186C60.0665 42.3567 59.9827 43.0133 59.8151 43.6884C59.6475 44.3728 59.3355 44.9647 58.8792 45.4641C58.4044 45.9912 57.8317 46.3934 57.1612 46.671ZM59.981 31.8832H55.9884V27.8634H59.981V31.8832Z" fill="#212121"/>
</g>
<defs>
<clipPath id="clip0_131_11708">
<rect width="52.3061" height="25.4462" fill="white" transform="translate(8 21.6817)"/>
</clipPath>
</defs>
</svg>
