<svg width="28" height="20" viewBox="0 0 18 10" fill="none" xmlns="http://www.w3.org/2000/svg">
<g clip-path="url(#clip0_131_11768)">
<path d="M4.70457 3.31877V4.54045H0.291748V3.31877H4.70457ZM0.291748 6.70976V5.48808H4.70457V6.70976H0.291748Z" fill="#F1F1F1"/>
<path d="M8.44893 3.44877C7.99678 3.44877 7.68654 3.63922 7.51816 4.02013C7.43085 4.22142 7.38719 4.47845 7.38719 4.79122V7.5319H6.05884V2.47792H7.34509V3.21651C7.5166 2.95638 7.67875 2.76902 7.83154 2.65444C8.10592 2.45005 8.4536 2.34785 8.87457 2.34785C9.40153 2.34785 9.83185 2.48566 10.1655 2.76128C10.5022 3.0338 10.6706 3.48748 10.6706 4.12232V7.5319H9.30486V4.45213C9.30486 4.18581 9.269 3.98142 9.19728 3.83897C9.06631 3.57884 8.81688 3.44877 8.44893 3.44877Z" fill="#F1F1F1"/>
<path d="M12.7971 2.4686V7.53188H11.4453V2.4686H12.7971ZM12.7971 0.643036V1.97133H11.4453V0.643036H12.7971Z" fill="#F1F1F1"/>
<path d="M13.6421 0.684784H14.9751V7.53182H13.6421V0.684784Z" fill="#F1F1F1"/>
<path d="M16.7341 9.00434C16.5096 9.09723 16.3537 9.14368 16.2664 9.14368V8.63272C16.5813 8.5429 16.8011 8.3834 16.9259 8.15424C17.0038 8.01178 17.0537 7.80431 17.0756 7.53178H16.3633V6.19277H17.707V7.34599C17.707 7.55967 17.6789 7.77954 17.6228 8.00562C17.5666 8.23477 17.4622 8.43297 17.3094 8.60019C17.1504 8.7767 16.9586 8.9114 16.7341 9.00434ZM17.6783 4.05253H16.3414V2.70647H17.6783V4.05253Z" fill="#F1F1F1"/>
</g>
<defs>
<clipPath id="clip0_131_11768">
<rect width="17.5152" height="8.52088" fill="white" transform="translate(0.272705 0.636368)"/>
</clipPath>
</defs>
</svg>
