<svg width="48" height="48" viewBox="0 0 48 48" fill="none" xmlns="http://www.w3.org/2000/svg">
<path d="M0 8C0 3.58172 3.58172 0 8 0H40C44.4183 0 48 3.58172 48 8V40C48 44.4183 44.4183 48 40 48H8C3.58172 48 0 44.4183 0 40V8Z" fill="#F1F1F1"/>
<path d="M16.8373 20.732V22.8927H9V20.732H16.8373ZM9 26.7292V24.5686H16.8373V26.7292H9Z" fill="#212121"/>
<path d="M23.4883 20.9621C22.6853 20.9621 22.1343 21.2989 21.8352 21.9725C21.6801 22.3285 21.6026 22.7831 21.6026 23.3363V28.1833H19.2434V19.2451H21.5279V20.5513C21.8324 20.0912 22.1204 19.7599 22.3918 19.5572C22.8791 19.1958 23.4966 19.015 24.2442 19.015C25.1801 19.015 25.9444 19.2587 26.5369 19.7462C27.135 20.2282 27.4341 21.0305 27.4341 22.1533V28.1833H25.0085V22.7366C25.0085 22.2656 24.9448 21.9041 24.8174 21.6522C24.5848 21.1921 24.1418 20.9621 23.4883 20.9621Z" fill="#212121"/>
<path d="M31.2104 19.2286V28.1833H28.8097V19.2286H31.2104ZM31.2104 16V18.3492L28.8097 18.3492V16H31.2104Z" fill="#212121"/>
<path d="M32.7106 16.0739H35.0781V28.1833H32.7106V16.0739Z" fill="#212121"/>
<path d="M38.2028 30.7876C37.804 30.9519 37.5271 31.0341 37.3721 31.0341V30.1304C37.9314 29.9715 38.3218 29.6895 38.5433 29.2842C38.6818 29.0323 38.7704 28.6653 38.8092 28.1833L37.5443 28.1833V25.8152L39.9306 25.8152V27.8547C39.9306 28.2326 39.8808 28.6215 39.7811 29.0213C39.6814 29.4266 39.4959 29.7771 39.2245 30.0729C38.9421 30.3851 38.6015 30.6233 38.2028 30.7876ZM39.8797 22.0301H37.5053V19.6495H39.8797V22.0301Z" fill="#212121"/>
</svg>
