<svg width="48" height="48" viewBox="0 0 48 48" fill="none" xmlns="http://www.w3.org/2000/svg">
<path d="M0 8C0 3.58172 3.58172 0 8 0H40C44.4183 0 48 3.58172 48 8V40C48 44.4183 44.4183 48 40 48H8C3.58172 48 0 44.4183 0 40V8Z" fill="#F1F1F1"/>
<path d="M24 40C32.8667 40 40 32.8667 40 24C40 15.1333 32.8667 8 24 8C15.1333 8 8 15.1333 8 24C8 32.8667 15.1333 40 24 40Z" fill="#2775CA"/>
<path d="M28.4001 26.5333C28.4001 24.2 27.0001 23.4 24.2001 23.0667C22.2001 22.8 21.8001 22.2667 21.8001 21.3333C21.8001 20.3998 22.4668 19.8 23.8001 19.8C25.0001 19.8 25.6668 20.2 26.0001 21.2C26.0668 21.4 26.2668 21.5333 26.4668 21.5333H27.5334C27.8001 21.5333 28.0001 21.3333 28.0001 21.0667V21C27.7334 19.5333 26.5334 18.4 25.0001 18.2667V16.6667C25.0001 16.4 24.8001 16.2 24.4668 16.1333H23.4668C23.2001 16.1333 23.0001 16.3333 22.9334 16.6667V18.2C20.9334 18.4667 19.6668 19.8 19.6668 21.4667C19.6668 23.6667 21.0001 24.5333 23.8001 24.8667C25.6668 25.2 26.2668 25.6 26.2668 26.6667C26.2668 27.7334 25.3334 28.4667 24.0668 28.4667C22.3334 28.4667 21.7334 27.7333 21.5334 26.7333C21.4668 26.4667 21.2668 26.3333 21.0668 26.3333H19.9334C19.6668 26.3333 19.4668 26.5333 19.4668 26.8V26.8667C19.7334 28.5333 20.8001 29.7333 23.0001 30.0667V31.6667C23.0001 31.9333 23.2001 32.1333 23.5334 32.2H24.5334C24.8001 32.2 25.0001 32 25.0668 31.6667V30.0667C27.0668 29.7333 28.4001 28.3333 28.4001 26.5333Z" fill="white"/>
<path d="M20.6003 33.5333C15.4003 31.6667 12.7336 25.8667 14.667 20.7333C15.667 17.9333 17.867 15.8 20.6003 14.8C20.867 14.6667 21.0003 14.4667 21.0003 14.1333V13.2C21.0003 12.9333 20.867 12.7333 20.6003 12.6667C20.5336 12.6667 20.4003 12.6667 20.3336 12.7333C14.0003 14.7333 10.5336 21.4667 12.5336 27.8C13.7336 31.5333 16.6003 34.4 20.3336 35.6C20.6003 35.7333 20.867 35.6 20.9336 35.3333C21.0003 35.2667 21.0003 35.2 21.0003 35.0667V34.1333C21.0003 33.9333 20.8003 33.6667 20.6003 33.5333ZM27.667 12.7333C27.4003 12.6 27.1336 12.7333 27.067 13C27.0003 13.0667 27.0003 13.1333 27.0003 13.2667V14.2C27.0003 14.4667 27.2003 14.7333 27.4003 14.8667C32.6003 16.7333 35.267 22.5333 33.3336 27.6667C32.3336 30.4667 30.1336 32.6 27.4003 33.6C27.1336 33.7333 27.0003 33.9333 27.0003 34.2667V35.2C27.0003 35.4667 27.1336 35.6667 27.4003 35.7333C27.467 35.7333 27.6003 35.7333 27.667 35.6667C34.0003 33.6667 37.467 26.9333 35.467 20.6C34.267 16.8 31.3336 13.9333 27.667 12.7333Z" fill="white"/>
</svg>
