<svg width="48" height="48" viewBox="0 0 48 48" fill="none" xmlns="http://www.w3.org/2000/svg">
<path d="M39.5213 27.8727C37.3841 36.4452 28.7016 41.6622 20.1281 39.5245C11.5582 37.3874 6.34114 28.7043 8.47923 20.1325C10.6154 11.5591 19.298 6.34167 27.8688 8.47883C36.4417 10.616 41.6584 19.3 39.521 27.8729L39.5212 27.8727H39.5213Z" fill="#F7931A"/>
<path d="M31.083 21.7095C31.4015 19.58 29.7802 18.4354 27.5633 17.6717L28.2825 14.7872L26.5265 14.3496L25.8264 17.1583C25.3648 17.0431 24.8907 16.9346 24.4196 16.8271L25.1248 13.9999L23.3699 13.5624L22.6503 16.446C22.2683 16.359 21.8931 16.2731 21.5291 16.1825L21.5312 16.1734L19.1097 15.5688L18.6426 17.4442C18.6426 17.4442 19.9453 17.7428 19.9179 17.7612C20.6289 17.9387 20.7575 18.4094 20.7362 18.7825L19.9169 22.0687C19.9659 22.0811 20.0294 22.0991 20.0995 22.1273C20.0409 22.1127 19.9786 22.0968 19.9139 22.0814L18.7656 26.6849C18.6787 26.9009 18.4582 27.2251 17.961 27.102C17.9786 27.1275 16.6848 26.7835 16.6848 26.7835L15.813 28.7935L18.0981 29.3631C18.5232 29.4697 18.9397 29.5813 19.35 29.6862L18.6233 32.6038L20.3772 33.0414L21.0968 30.1547C21.576 30.2847 22.041 30.4047 22.4962 30.5178L21.779 33.3909L23.535 33.8284L24.2616 30.9163C27.2558 31.4829 29.5072 31.2545 30.4549 28.5462C31.2185 26.3657 30.4169 25.108 28.8416 24.2878C29.989 24.0232 30.8532 23.2686 31.0836 21.7098L31.0831 21.7094L31.083 21.7095ZM27.0711 27.3352C26.5284 29.5157 22.8571 28.337 21.6669 28.0414L22.6311 24.176C23.8213 24.4732 27.6382 25.0612 27.0712 27.3352H27.0711ZM27.6141 21.6779C27.1191 23.6613 24.0635 22.6537 23.0722 22.4066L23.9464 18.9009C24.9377 19.148 28.1298 19.6091 27.6143 21.6779H27.6141Z" fill="white"/>
</svg>
