<svg width="171" height="22" viewBox="0 0 171 22" fill="none" xmlns="http://www.w3.org/2000/svg">
<g id="=nil; zkSharding logo">
<path id="Vector" d="M165.159 13.8951C165.615 13.8951 166.019 13.8038 166.368 13.6213C166.718 13.4388 167.007 13.1954 167.235 12.8912C167.464 12.587 167.631 12.2447 167.737 11.8644C167.859 11.469 167.92 11.0583 167.92 10.6324C167.92 10.1456 167.874 9.68931 167.783 9.26341C167.692 8.8223 167.54 8.43443 167.327 8.09979C167.114 7.76515 166.832 7.49897 166.482 7.30123C166.133 7.10349 165.692 7.00462 165.159 7.00462C164.703 7.00462 164.307 7.09588 163.973 7.27841C163.653 7.46094 163.379 7.71192 163.151 8.03134C162.938 8.33556 162.779 8.69301 162.672 9.1037C162.581 9.49918 162.535 9.91747 162.535 10.3586C162.535 10.7845 162.573 11.2104 162.649 11.6363C162.741 12.047 162.885 12.4196 163.083 12.7543C163.296 13.0889 163.57 13.3627 163.904 13.5757C164.239 13.7886 164.657 13.8951 165.159 13.8951ZM171 15.9257C171 16.3972 170.932 16.9372 170.795 17.5457C170.673 18.1541 170.399 18.7169 169.973 19.234C169.547 19.7664 168.931 20.2151 168.125 20.5802C167.319 20.9453 166.239 21.1278 164.885 21.1278C164.307 21.1278 163.714 21.0517 163.106 20.8996C162.512 20.7627 161.965 20.5422 161.463 20.238C160.976 19.9337 160.566 19.5383 160.231 19.0515C159.911 18.58 159.729 18.0096 159.683 17.3403H162.9C163.052 17.9487 163.349 18.367 163.79 18.5952C164.231 18.8386 164.741 18.9603 165.319 18.9603C166.232 18.9603 166.893 18.6865 167.304 18.1389C167.73 17.5913 167.935 16.8992 167.92 16.0626V14.5111H167.874C167.524 15.1348 167.022 15.5987 166.368 15.9029C165.73 16.1919 165.053 16.3364 164.338 16.3364C163.456 16.3364 162.695 16.1843 162.056 15.8801C161.417 15.5607 160.893 15.1348 160.482 14.6024C160.071 14.0548 159.767 13.4235 159.569 12.7086C159.387 11.9785 159.295 11.2104 159.295 10.4042C159.295 9.64368 159.402 8.91356 159.615 8.21387C159.843 7.49897 160.17 6.87533 160.596 6.34295C161.022 5.79536 161.547 5.36186 162.17 5.04243C162.809 4.72301 163.539 4.56329 164.361 4.56329C165.136 4.56329 165.813 4.7078 166.391 4.9968C166.984 5.2858 167.479 5.77255 167.874 6.45703H167.92V4.88272H171V15.9257Z" fill="#F2F2F2"/>
<path id="Vector_2" d="M146.135 4.88272H149.215V6.52548H149.284C149.695 5.841 150.227 5.34665 150.881 5.04243C151.535 4.72301 152.204 4.56329 152.889 4.56329C153.756 4.56329 154.463 4.68498 155.011 4.92835C155.574 5.15651 156.015 5.48354 156.334 5.90944C156.653 6.32013 156.874 6.82969 156.996 7.43812C157.133 8.03134 157.201 8.69301 157.201 9.42312V16.6786H153.961V10.0163C153.961 9.04285 153.809 8.32035 153.505 7.84881C153.201 7.36207 152.661 7.1187 151.885 7.1187C151.003 7.1187 150.364 7.38488 149.968 7.91726C149.573 8.43443 149.375 9.29383 149.375 10.4955V16.6786H146.135V4.88272Z" fill="#F2F2F2"/>
<path id="Vector_3" d="M143.584 3.0573H140.344V0.387817H143.584V3.0573ZM140.344 4.88259H143.584V16.6785H140.344V4.88259Z" fill="#F2F2F2"/>
<path id="Vector_4" d="M134.678 10.7463C134.678 10.2596 134.633 9.79566 134.541 9.35455C134.45 8.89822 134.29 8.50274 134.062 8.16811C133.849 7.81826 133.568 7.53686 133.218 7.32391C132.868 7.11096 132.427 7.00449 131.895 7.00449C131.362 7.00449 130.914 7.11096 130.548 7.32391C130.183 7.53686 129.887 7.81826 129.659 8.16811C129.446 8.51796 129.286 8.92104 129.18 9.37736C129.088 9.81847 129.043 10.2824 129.043 10.7691C129.043 11.2255 129.096 11.6818 129.202 12.1381C129.309 12.5944 129.476 13.0051 129.704 13.3702C129.948 13.72 130.244 14.009 130.594 14.2372C130.959 14.4501 131.393 14.5566 131.895 14.5566C132.427 14.5566 132.868 14.4501 133.218 14.2372C133.583 14.0242 133.872 13.7428 134.085 13.393C134.298 13.0279 134.45 12.6172 134.541 12.1609C134.633 11.7046 134.678 11.2331 134.678 10.7463ZM134.724 15.1727H134.678C134.298 15.8115 133.796 16.2754 133.172 16.5644C132.564 16.8382 131.872 16.9751 131.096 16.9751C130.214 16.9751 129.438 16.8078 128.769 16.4732C128.1 16.1233 127.544 15.6594 127.103 15.0814C126.677 14.4882 126.35 13.8113 126.122 13.0508C125.909 12.2902 125.803 11.4993 125.803 10.6779C125.803 9.88692 125.909 9.12639 126.122 8.39627C126.35 7.65094 126.677 6.99688 127.103 6.43408C127.544 5.87129 128.092 5.42257 128.746 5.08794C129.4 4.73809 130.161 4.56316 131.028 4.56316C131.727 4.56316 132.389 4.71527 133.013 5.01949C133.651 5.30849 134.153 5.742 134.518 6.32H134.564V0.387817H137.804V16.6785H134.724V15.1727Z" fill="#F2F2F2"/>
<path id="Vector_5" d="M117.838 4.88272H120.918V7.07306H120.964C121.116 6.70801 121.321 6.37337 121.58 6.06916C121.838 5.74973 122.135 5.48354 122.47 5.27059C122.804 5.04243 123.162 4.86751 123.542 4.74582C123.922 4.62414 124.318 4.56329 124.728 4.56329C124.941 4.56329 125.177 4.60132 125.436 4.67737V7.6891C125.284 7.65868 125.101 7.63586 124.888 7.62065C124.675 7.59023 124.47 7.57502 124.272 7.57502C123.679 7.57502 123.177 7.67389 122.766 7.87163C122.355 8.06937 122.021 8.34316 121.762 8.69301C121.519 9.02764 121.344 9.42312 121.237 9.87944C121.131 10.3358 121.078 10.8301 121.078 11.3625V16.6786H117.838V4.88272Z" fill="#F2F2F2"/>
<path id="Vector_6" d="M104.599 8.51048C104.645 7.74994 104.835 7.1187 105.17 6.61674C105.504 6.11479 105.93 5.7117 106.448 5.40749C106.965 5.10327 107.543 4.89033 108.182 4.76864C108.836 4.63174 109.49 4.56329 110.144 4.56329C110.737 4.56329 111.338 4.60893 111.946 4.70019C112.555 4.77624 113.11 4.93596 113.612 5.17933C114.114 5.4227 114.524 5.76494 114.844 6.20605C115.163 6.63195 115.323 7.20236 115.323 7.91726V14.0548C115.323 14.5872 115.353 15.0967 115.414 15.5835C115.475 16.0702 115.582 16.4353 115.734 16.6786H112.448C112.387 16.4961 112.334 16.3136 112.288 16.1311C112.258 15.9333 112.235 15.7356 112.22 15.5378C111.703 16.0702 111.094 16.4429 110.395 16.6558C109.695 16.8688 108.98 16.9753 108.25 16.9753C107.687 16.9753 107.162 16.9068 106.676 16.7699C106.189 16.633 105.763 16.4201 105.398 16.1311C105.033 15.8421 104.744 15.477 104.531 15.0359C104.333 14.5948 104.234 14.07 104.234 13.4616C104.234 12.7923 104.348 12.2447 104.577 11.8188C104.82 11.3777 105.124 11.0279 105.489 10.7693C105.87 10.5107 106.295 10.3206 106.767 10.1989C107.254 10.062 107.74 9.9555 108.227 9.87945C108.714 9.80339 109.193 9.74255 109.665 9.69692C110.136 9.65129 110.554 9.58284 110.919 9.49157C111.285 9.40031 111.574 9.27102 111.787 9.1037C111.999 8.92117 112.098 8.66259 112.083 8.32795C112.083 7.9781 112.022 7.70431 111.901 7.50657C111.794 7.29362 111.642 7.13391 111.444 7.02743C111.262 6.90575 111.041 6.82969 110.783 6.79927C110.539 6.75364 110.273 6.73082 109.984 6.73082C109.345 6.73082 108.843 6.86772 108.478 7.14151C108.113 7.41531 107.9 7.87163 107.839 8.51048H104.599ZM112.083 10.9062C111.946 11.0279 111.771 11.1267 111.558 11.2028C111.361 11.2636 111.14 11.3169 110.897 11.3625C110.669 11.4081 110.425 11.4462 110.167 11.4766C109.908 11.507 109.649 11.545 109.391 11.5907C109.147 11.6363 108.904 11.6971 108.661 11.7732C108.433 11.8492 108.227 11.9557 108.045 12.0926C107.877 12.2143 107.74 12.374 107.634 12.5717C107.528 12.7695 107.474 13.0205 107.474 13.3247C107.474 13.6137 107.528 13.8571 107.634 14.0548C107.74 14.2525 107.885 14.4122 108.067 14.5339C108.25 14.6404 108.463 14.7165 108.706 14.7621C108.95 14.8077 109.201 14.8305 109.459 14.8305C110.098 14.8305 110.592 14.7241 110.942 14.5111C111.292 14.2982 111.551 14.0472 111.718 13.7582C111.885 13.454 111.984 13.1498 112.015 12.8455C112.06 12.5413 112.083 12.298 112.083 12.1154V10.9062Z" fill="#F2F2F2"/>
<path id="Vector_7" d="M91.2119 0.387817H94.4518V6.52535H94.5203C94.9309 5.84087 95.4557 5.34652 96.0946 5.0423C96.7334 4.72288 97.3571 4.56316 97.9655 4.56316C98.8325 4.56316 99.5398 4.68485 100.087 4.92822C100.65 5.15638 101.091 5.48341 101.411 5.90931C101.73 6.32 101.951 6.82956 102.072 7.43799C102.209 8.03121 102.278 8.69288 102.278 9.42299V16.6785H99.0378V10.0162C99.0378 9.04273 98.8857 8.32022 98.5815 7.84868C98.2773 7.36194 97.7373 7.11857 96.9616 7.11857C96.0794 7.11857 95.4405 7.38476 95.045 7.91713C94.6495 8.4343 94.4518 9.2937 94.4518 10.4953V16.6785H91.2119V0.387817Z" fill="#F2F2F2"/>
<path id="Vector_8" d="M79.1784 11.2712C79.1784 11.8187 79.2773 12.2827 79.475 12.6629C79.6728 13.0432 79.9313 13.355 80.2508 13.5984C80.5854 13.8266 80.9733 14.0015 81.4144 14.1232C81.8555 14.2296 82.3118 14.2829 82.7833 14.2829C83.1028 14.2829 83.445 14.2601 83.8101 14.2144C84.1751 14.1536 84.5174 14.0471 84.8368 13.895C85.1562 13.7429 85.4224 13.5376 85.6354 13.279C85.8483 13.0052 85.9548 12.6629 85.9548 12.2522C85.9548 11.8111 85.8103 11.4537 85.5213 11.1799C85.2475 10.9061 84.8824 10.6779 84.4261 10.4954C83.9698 10.3129 83.4526 10.1532 82.8746 10.0163C82.2966 9.87937 81.711 9.72726 81.1178 9.55995C80.5093 9.40784 79.9161 9.22531 79.3381 9.01236C78.7601 8.7842 78.2429 8.4952 77.7866 8.14535C77.3303 7.7955 76.9576 7.36199 76.6686 6.84483C76.3948 6.31245 76.2579 5.6736 76.2579 4.92828C76.2579 4.09169 76.4329 3.36918 76.7827 2.76075C77.1478 2.13711 77.6193 1.61994 78.1973 1.20925C78.7753 0.798563 79.4294 0.494348 80.1595 0.296608C80.8896 0.0988694 81.6197 0 82.3498 0C83.2016 0 84.0154 0.0988694 84.7912 0.296608C85.5821 0.479137 86.2818 0.783352 86.8902 1.20925C87.4987 1.63515 87.9778 2.18274 88.3277 2.85201C88.6927 3.50607 88.8752 4.30464 88.8752 5.2477H85.4072C85.3768 4.76096 85.2703 4.35787 85.0878 4.03845C84.9205 3.71902 84.6923 3.46805 84.4033 3.28552C84.1143 3.10299 83.7796 2.9737 83.3994 2.89764C83.0343 2.82159 82.6312 2.78356 82.1901 2.78356C81.9011 2.78356 81.6121 2.81399 81.3231 2.87483C81.0341 2.93567 80.7679 3.04215 80.5246 3.19425C80.2964 3.34636 80.1063 3.53649 79.9541 3.76466C79.802 3.99282 79.726 4.28182 79.726 4.63167C79.726 4.95109 79.7868 5.20968 79.9085 5.40742C80.0302 5.60515 80.266 5.78768 80.6158 5.955C80.9809 6.12232 81.4752 6.28964 82.0989 6.45696C82.7377 6.62427 83.5667 6.83723 84.5858 7.09581C84.89 7.15665 85.3083 7.27073 85.8407 7.43805C86.3883 7.59016 86.9283 7.84113 87.4607 8.19098C87.993 8.54083 88.4493 9.01236 88.8296 9.60558C89.2251 10.1836 89.4228 10.9289 89.4228 11.8416C89.4228 12.5869 89.2783 13.279 88.9893 13.9178C88.7003 14.5567 88.2668 15.1119 87.6888 15.5834C87.126 16.0397 86.4187 16.3972 85.5669 16.6558C84.7303 16.9143 83.7568 17.0436 82.6465 17.0436C81.749 17.0436 80.8744 16.9295 80.0226 16.7014C79.186 16.4884 78.4407 16.1462 77.7866 15.6747C77.1478 15.2031 76.6382 14.6023 76.2579 13.8722C75.8777 13.1421 75.6951 12.2751 75.7104 11.2712H79.1784Z" fill="#F2F2F2"/>
<path id="Vector_9" d="M63.5903 0.387817H66.8302V9.12638L70.9143 4.88259H74.7474L70.2983 9.21765L75.2494 16.6785H71.325L68.0851 11.408L66.8302 12.6172V16.6785H63.5903V0.387817Z" fill="#F2F2F2"/>
<path id="Vector_10" d="M50.7324 14.2372L56.87 7.32395H51.1887V4.88263H61.1366V7.32395L54.999 14.2372H61.5701V16.6786H50.7324V14.2372Z" fill="#F2F2F2"/>
<g id="=nil; Foundation">
<path d="M10.4497 6.82677V9.70762H0V6.82677H10.4497ZM0 14.823V11.9422H10.4497V14.823H0Z" fill="#F2F2F2"/>
<path d="M19.3177 7.13348C18.247 7.13348 17.5123 7.58258 17.1136 8.48079C16.9069 8.95546 16.8035 9.56157 16.8035 10.2991V16.7619H13.6579V4.84414H16.7038V6.58579C17.1099 5.97238 17.4939 5.53058 17.8557 5.26038C18.5055 4.77842 19.3288 4.53743 20.3256 4.53743C21.5735 4.53743 22.5925 4.86239 23.3826 5.51232C24.18 6.15494 24.5788 7.22476 24.5788 8.72178V16.7619H21.3446V9.49949C21.3446 8.87148 21.2597 8.38951 21.0899 8.0536C20.7797 7.44018 20.189 7.13348 19.3177 7.13348Z" fill="#F2F2F2"/>
<path d="M29.6139 4.82223V16.7619H26.4129V4.82223H29.6139ZM29.6139 0.517395V3.64962L26.4129 3.64962V0.517395H29.6139Z" fill="#F2F2F2"/>
<path d="M31.6142 0.615979H34.7708V16.7619H31.6142V0.615979Z" fill="#F2F2F2"/>
<path d="M38.937 20.2342C38.4054 20.4533 38.0362 20.5628 37.8294 20.5628V19.3579C38.5752 19.1461 39.0958 18.77 39.3911 18.2297C39.5757 17.8937 39.6939 17.4045 39.7456 16.7619L38.059 16.7619V13.6043L41.2408 13.6043V16.3237C41.2408 16.8276 41.1744 17.3461 41.0414 17.8791C40.9085 18.4195 40.6612 18.8869 40.2994 19.2812C39.9228 19.6975 39.4687 20.0151 38.937 20.2342ZM41.1729 8.55747H38.0071V5.38336H41.1729V8.55747Z" fill="#F2F2F2"/>
</g>
</g>
</svg>
